<svg id="visual" viewBox="0 0 960 400" width="960" height="400" xmlns="http://www.w3.org/2000/svg" xmlns:xlink="http://www.w3.org/1999/xlink" version="1.1"><rect x="0" y="0" width="960" height="400" fill="#fff"></rect><path d="M0 144L22.8 145.2C45.7 146.3 91.3 148.7 137 144C182.7 139.3 228.3 127.7 274 119.5C319.7 111.3 365.3 106.7 411.2 112.2C457 117.7 503 133.3 548.8 141C594.7 148.7 640.3 148.3 686 145.7C731.7 143 777.3 138 823 135C868.7 132 914.3 131 937.2 130.5L960 130L960 0L937.2 0C914.3 0 868.7 0 823 0C777.3 0 731.7 0 686 0C640.3 0 594.7 0 548.8 0C503 0 457 0 411.2 0C365.3 0 319.7 0 274 0C228.3 0 182.7 0 137 0C91.3 0 45.7 0 22.8 0L0 0Z" fill="#9f859e"></path><path d="M0 89L22.8 91.3C45.7 93.7 91.3 98.3 137 100.2C182.7 102 228.3 101 274 96.8C319.7 92.7 365.3 85.3 411.2 87C457 88.7 503 99.3 548.8 105.2C594.7 111 640.3 112 686 106.8C731.7 101.7 777.3 90.3 823 86.3C868.7 82.3 914.3 85.7 937.2 87.3L960 89L960 0L937.2 0C914.3 0 868.7 0 823 0C777.3 0 731.7 0 686 0C640.3 0 594.7 0 548.8 0C503 0 457 0 411.2 0C365.3 0 319.7 0 274 0C228.3 0 182.7 0 137 0C91.3 0 45.7 0 22.8 0L0 0Z" fill="#8b6b8a"></path><path d="M0 70L22.8 70.7C45.7 71.3 91.3 72.7 137 77.3C182.7 82 228.3 90 274 92.2C319.7 94.3 365.3 90.7 411.2 91.8C457 93 503 99 548.8 95.2C594.7 91.3 640.3 77.7 686 71.7C731.7 65.7 777.3 67.3 823 71.3C868.7 75.3 914.3 81.7 937.2 84.8L960 88L960 0L937.2 0C914.3 0 868.7 0 823 0C777.3 0 731.7 0 686 0C640.3 0 594.7 0 548.8 0C503 0 457 0 411.2 0C365.3 0 319.7 0 274 0C228.3 0 182.7 0 137 0C91.3 0 45.7 0 22.8 0L0 0Z" fill="#785177"></path><path d="M0 48L22.8 50.5C45.7 53 91.3 58 137 62.3C182.7 66.7 228.3 70.3 274 70.8C319.7 71.3 365.3 68.7 411.2 62.8C457 57 503 48 548.8 44.8C594.7 41.7 640.3 44.3 686 49.5C731.7 54.7 777.3 62.3 823 64C868.7 65.7 914.3 61.3 937.2 59.2L960 57L960 0L937.2 0C914.3 0 868.7 0 823 0C777.3 0 731.7 0 686 0C640.3 0 594.7 0 548.8 0C503 0 457 0 411.2 0C365.3 0 319.7 0 274 0C228.3 0 182.7 0 137 0C91.3 0 45.7 0 22.8 0L0 0Z" fill="#643864"></path><path d="M0 34L22.8 35.3C45.7 36.7 91.3 39.3 137 39.8C182.7 40.3 228.3 38.7 274 34.8C319.7 31 365.3 25 411.2 24.5C457 24 503 29 548.8 30.3C594.7 31.7 640.3 29.3 686 29C731.7 28.7 777.3 30.3 823 29C868.7 27.7 914.3 23.3 937.2 21.2L960 19L960 0L937.2 0C914.3 0 868.7 0 823 0C777.3 0 731.7 0 686 0C640.3 0 594.7 0 548.8 0C503 0 457 0 411.2 0C365.3 0 319.7 0 274 0C228.3 0 182.7 0 137 0C91.3 0 45.7 0 22.8 0L0 0Z" fill="#511f52"></path></svg>