<svg id="visual" viewBox="0 0 960 300" width="960" height="300" xmlns="http://www.w3.org/2000/svg" xmlns:xlink="http://www.w3.org/1999/xlink" version="1.1"><rect x="0" y="0" width="960" height="300" fill="#ffffff"></rect><path d="M0 189L22.8 192.5C45.7 196 91.3 203 137 206.7C182.7 210.3 228.3 210.7 274 212.2C319.7 213.7 365.3 216.3 411.2 217.3C457 218.3 503 217.7 548.8 213.2C594.7 208.7 640.3 200.3 686 196.3C731.7 192.3 777.3 192.7 823 190C868.7 187.3 914.3 181.7 937.2 178.8L960 176L960 301L937.2 301C914.3 301 868.7 301 823 301C777.3 301 731.7 301 686 301C640.3 301 594.7 301 548.8 301C503 301 457 301 411.2 301C365.3 301 319.7 301 274 301C228.3 301 182.7 301 137 301C91.3 301 45.7 301 22.8 301L0 301Z" fill="#a987a8"></path><path d="M0 201L22.8 204.8C45.7 208.7 91.3 216.3 137 217.3C182.7 218.3 228.3 212.7 274 212.7C319.7 212.7 365.3 218.3 411.2 217C457 215.7 503 207.3 548.8 205.7C594.7 204 640.3 209 686 208.7C731.7 208.3 777.3 202.7 823 204.5C868.7 206.3 914.3 215.7 937.2 220.3L960 225L960 301L937.2 301C914.3 301 868.7 301 823 301C777.3 301 731.7 301 686 301C640.3 301 594.7 301 548.8 301C503 301 457 301 411.2 301C365.3 301 319.7 301 274 301C228.3 301 182.7 301 137 301C91.3 301 45.7 301 22.8 301L0 301Z" fill="#926c92"></path><path d="M0 239L22.8 240.8C45.7 242.7 91.3 246.3 137 245.7C182.7 245 228.3 240 274 236.5C319.7 233 365.3 231 411.2 228.5C457 226 503 223 548.8 225.5C594.7 228 640.3 236 686 241.5C731.7 247 777.3 250 823 249C868.7 248 914.3 243 937.2 240.5L960 238L960 301L937.2 301C914.3 301 868.7 301 823 301C777.3 301 731.7 301 686 301C640.3 301 594.7 301 548.8 301C503 301 457 301 411.2 301C365.3 301 319.7 301 274 301C228.3 301 182.7 301 137 301C91.3 301 45.7 301 22.8 301L0 301Z" fill="#7c527c"></path><path d="M0 262L22.8 263C45.7 264 91.3 266 137 263.8C182.7 261.7 228.3 255.3 274 251.3C319.7 247.3 365.3 245.7 411.2 248.7C457 251.7 503 259.3 548.8 259.3C594.7 259.3 640.3 251.7 686 247.8C731.7 244 777.3 244 823 245.7C868.7 247.3 914.3 250.7 937.2 252.3L960 254L960 301L937.2 301C914.3 301 868.7 301 823 301C777.3 301 731.7 301 686 301C640.3 301 594.7 301 548.8 301C503 301 457 301 411.2 301C365.3 301 319.7 301 274 301C228.3 301 182.7 301 137 301C91.3 301 45.7 301 22.8 301L0 301Z" fill="#663967"></path><path d="M0 270L22.8 269.3C45.7 268.7 91.3 267.3 137 266.3C182.7 265.3 228.3 264.7 274 267.3C319.7 270 365.3 276 411.2 279C457 282 503 282 548.8 279.7C594.7 277.3 640.3 272.7 686 271.7C731.7 270.7 777.3 273.3 823 272.8C868.7 272.3 914.3 268.7 937.2 266.8L960 265L960 301L937.2 301C914.3 301 868.7 301 823 301C777.3 301 731.7 301 686 301C640.3 301 594.7 301 548.8 301C503 301 457 301 411.2 301C365.3 301 319.7 301 274 301C228.3 301 182.7 301 137 301C91.3 301 45.7 301 22.8 301L0 301Z" fill="#511f52"></path></svg>